<svg preserveAspectRatio="xMidYMid meet" overflow="visible" style="display: block;" viewBox="0 0 16 14.5" fill="none" xmlns="http://www.w3.org/2000/svg">
<path id="favorite" d="M8 14.5L6.95833 13.5625C5.56944 12.3264 4.42361 11.2674 3.52083 10.3854C2.61806 9.50347 1.90625 8.71875 1.38542 8.03125C0.864583 7.34375 0.503472 6.71528 0.302083 6.14583C0.100694 5.57639 0 4.99306 0 4.39583C0 3.15972 0.423611 2.11806 1.27083 1.27083C2.11806 0.423611 3.15972 0 4.39583 0C5.07639 0 5.73611 0.145833 6.375 0.4375C7.01389 0.729167 7.55556 1.13889 8 1.66667C8.44444 1.13889 8.98611 0.729167 9.625 0.4375C10.2639 0.145833 10.9236 0 11.6042 0C12.8403 0 13.8819 0.423611 14.7292 1.27083C15.5764 2.11806 16 3.15972 16 4.39583C16 4.99306 15.9028 5.56944 15.7083 6.125C15.5139 6.68056 15.1563 7.29861 14.6354 7.97917C14.1146 8.65972 13.3993 9.44792 12.4896 10.3438C11.5799 11.2396 10.4167 12.3264 9 13.6042L8 14.5Z" fill="#F49A3D"/>
</svg>
