<svg preserveAspectRatio="xMidYMid meet"  overflow="visible" style="display: block;" viewBox="0 0 13.3135 13.3334" fill="none" xmlns="http://www.w3.org/2000/svg">
<path id="Vector" d="M11.5859 8.51734L9.4903 11.9368C9.26018 12.3146 8.94691 12.6349 8.57435 12.8733C8.20178 13.1118 7.77973 13.2621 7.3403 13.3129C7.22451 13.3266 7.10801 13.3335 6.99141 13.3334C6.39445 13.3326 5.81233 13.1473 5.32475 12.8029C4.82089 13.1804 4.19849 13.3649 3.57031 13.323C2.94213 13.2811 2.34973 13.0156 1.90044 12.5746C1.45115 12.1336 1.1747 11.5462 1.12117 10.9189C1.06764 10.2916 1.24057 9.66589 1.60863 9.15511L0.878079 8.42567C0.566133 8.1137 0.32881 7.7352 0.183886 7.31851C0.0389612 6.90182 -0.00980956 6.45774 0.041226 6.01953C0.0922615 5.58132 0.241781 5.16034 0.478586 4.7881C0.715391 4.41587 1.03334 4.10204 1.40863 3.87011L4.61252 1.889C5.48042 1.33277 6.50106 1.06309 7.53044 1.11801C8.55982 1.17293 9.54597 1.54969 10.3497 2.19511L11.2714 1.27345C11.3227 1.22039 11.384 1.17806 11.4517 1.14895C11.5195 1.11983 11.5924 1.1045 11.6662 1.10386C11.74 1.10322 11.8131 1.11728 11.8814 1.14521C11.9497 1.17315 12.0117 1.2144 12.0639 1.26656C12.116 1.31872 12.1573 1.38075 12.1852 1.44903C12.2131 1.5173 12.2272 1.59046 12.2266 1.66422C12.2259 1.73799 12.2106 1.81089 12.1815 1.87867C12.1524 1.94645 12.11 2.00775 12.057 2.059L11.1364 2.98011C11.7538 3.75358 12.1264 4.69368 12.2065 5.68011C12.2865 6.66654 12.0704 7.65442 11.5859 8.51734ZM4.47808 12.0262L2.41197 9.95956C2.25051 10.2483 2.18824 10.5821 2.2347 10.9096C2.28116 11.2372 2.4338 11.5404 2.66919 11.7729C2.90665 11.9985 3.20868 12.1441 3.53302 12.1896C3.85736 12.235 4.1878 12.1779 4.47808 12.0262ZM9.98975 3.35956C9.37283 2.73669 8.56072 2.34457 7.6893 2.2488C6.81787 2.15303 5.93999 2.35942 5.20252 2.83345L1.99308 4.81456C1.76032 4.95843 1.56313 5.15309 1.41628 5.38398C1.26942 5.61486 1.1767 5.87597 1.14507 6.14777C1.11343 6.41956 1.14369 6.695 1.2336 6.95344C1.3235 7.21188 1.4707 7.44663 1.66419 7.64011L5.71419 11.6907C5.90799 11.8847 6.14325 12.0322 6.4023 12.1222C6.66134 12.2122 6.93741 12.2423 7.20975 12.2102C7.4821 12.1781 7.74362 12.0847 7.97466 11.937C8.20569 11.7893 8.40023 11.5911 8.54363 11.3573L10.6297 7.95456C11.0372 7.22274 11.1951 6.3781 11.0797 5.5485C10.9642 4.7189 10.5816 3.9495 9.98975 3.35678V3.35956ZM10.7003 13.3334C10.583 13.3337 10.4686 13.2967 10.3736 13.2279C10.2785 13.1591 10.2077 13.062 10.1712 12.9505C10.1348 12.839 10.1346 12.7188 10.1706 12.6071C10.2067 12.4955 10.2772 12.3981 10.372 12.329C11.3447 11.5976 12.0031 10.5238 12.2136 9.32511C12.2284 9.25295 12.2574 9.18445 12.2988 9.12359C12.3403 9.06272 12.3935 9.01071 12.4553 8.97059C12.517 8.93046 12.5861 8.90302 12.6586 8.88985C12.7311 8.87669 12.8054 8.87806 12.8774 8.8939C12.9493 8.90974 13.0174 8.93972 13.0776 8.9821C13.1378 9.02449 13.1891 9.07843 13.2283 9.14078C13.2675 9.20314 13.2939 9.27267 13.3059 9.34532C13.318 9.41798 13.3155 9.49231 13.2986 9.564C13.0264 11.026 12.2161 12.3329 11.0275 13.2268C10.9325 13.2961 10.8179 13.3334 10.7003 13.3334ZM0.553079 3.18845C0.45047 3.18799 0.349991 3.15912 0.262785 3.10505C0.175579 3.05097 0.105053 2.9738 0.0590262 2.8821C0.0129993 2.79039 -0.00672966 2.68772 0.00202684 2.58549C0.0107833 2.48325 0.0476831 2.38544 0.108635 2.30289C1.01474 1.09211 2.34853 0.272515 3.83808 0.0112244C3.98247 -0.0182441 4.13266 0.0108553 4.2556 0.0921211C4.37854 0.173387 4.46417 0.300162 4.49363 0.444558C4.5231 0.588953 4.494 0.739141 4.41274 0.862082C4.33147 0.985022 4.2047 1.07064 4.0603 1.10011C2.83696 1.30213 1.73932 1.96991 0.997524 2.96345C0.946067 3.03296 0.879093 3.08949 0.801934 3.12855C0.724775 3.16762 0.639562 3.18812 0.553079 3.18845Z" fill="#69738C"/>
</svg>
