<svg preserveAspectRatio="xMidYMid meet"  overflow="visible" style="display: block;" viewBox="0 0 8.42105 4.4582" fill="none" xmlns="http://www.w3.org/2000/svg">
<path id="Vector" d="M8.25906 0.879592L4.59895 4.30699C4.54795 4.35492 4.48734 4.39295 4.42061 4.4189C4.35387 4.44485 4.28233 4.4582 4.21007 4.4582C4.13781 4.4582 4.06626 4.44485 3.99953 4.4189C3.9328 4.39295 3.87219 4.35492 3.82118 4.30699L0.161082 0.879592C0.0579429 0.78301 -1.53689e-09 0.652017 0 0.51543C1.53689e-09 0.378843 0.0579429 0.247851 0.161082 0.151269C0.264221 0.0546874 0.404107 0.000428518 0.549968 0.000428517C0.695828 0.000428515 0.835714 0.0546874 0.938853 0.151269L4.21053 3.21494L7.4822 0.150841C7.58534 0.0542592 7.72522 0 7.87108 0C8.01694 0 8.15683 0.0542592 8.25997 0.150841C8.36311 0.247422 8.42105 0.378415 8.42105 0.515002C8.42105 0.651589 8.36311 0.782582 8.25997 0.879164L8.25906 0.879592Z" fill="#34C38F"/>
</svg>
