<svg preserveAspectRatio="xMidYMid meet"  overflow="visible" style="display: block;" viewBox="0 0 12.7846 13.3333" fill="none" xmlns="http://www.w3.org/2000/svg">
<g id="Group">
<path id="Vector" d="M3.31755 12.3797C3.19612 12.3797 3.07805 12.3399 2.9814 12.2663C2.88476 12.1928 2.81486 12.0897 2.78241 11.9727C2.74996 11.8556 2.75674 11.7312 2.80172 11.6184C2.8467 11.5056 2.92739 11.4107 3.03145 11.3481C4.99965 10.166 4.99965 7.62727 4.99965 6.11071C4.99965 5.66872 5.17523 5.24482 5.48777 4.93228C5.80031 4.61975 6.2242 4.44416 6.6662 4.44416C7.1082 4.44416 7.53209 4.61975 7.84463 4.93228C8.15717 5.24482 8.33275 5.66872 8.33275 6.11071C8.33275 6.25805 8.27422 6.39934 8.17004 6.50352C8.06586 6.6077 7.92457 6.66623 7.77723 6.66623C7.6299 6.66623 7.4886 6.6077 7.38442 6.50352C7.28024 6.39934 7.22172 6.25805 7.22172 6.11071C7.22172 5.96338 7.16319 5.82208 7.05901 5.7179C6.95483 5.61372 6.81353 5.5552 6.6662 5.5552C6.51887 5.5552 6.37757 5.61372 6.27339 5.7179C6.16921 5.82208 6.11068 5.96338 6.11068 6.11071C6.11068 7.74782 6.11068 10.7959 3.60308 12.3008C3.5168 12.3525 3.41811 12.3798 3.31755 12.3797ZM6.07458 13.1691C7.34226 11.8914 8.08277 10.0949 8.27498 7.82448C8.28146 7.75165 8.2735 7.67826 8.25155 7.60851C8.2296 7.53876 8.1941 7.47404 8.14709 7.41804C8.10007 7.36204 8.04246 7.31588 7.97756 7.28219C7.91266 7.24851 7.84175 7.22797 7.7689 7.22175C7.696 7.21427 7.62235 7.22154 7.55232 7.24313C7.4823 7.26472 7.41733 7.30018 7.3613 7.3474C7.30526 7.39463 7.2593 7.45264 7.22616 7.518C7.19302 7.58336 7.17337 7.65471 7.16839 7.72782C6.99562 9.75935 6.38011 11.2831 5.2863 12.3836C5.18243 12.4881 5.12434 12.6297 5.12481 12.777C5.12528 12.9244 5.18426 13.0655 5.2888 13.1694C5.39333 13.2733 5.53484 13.3313 5.6822 13.3309C5.82957 13.3304 5.97071 13.2714 6.07458 13.1669V13.1691ZM8.96326 13.0658C9.30023 12.5059 9.58084 11.914 9.80098 11.2987C9.847 11.1611 9.83736 11.0109 9.7741 10.8803C9.71085 10.7497 9.59902 10.6491 9.46252 10.5999C9.32601 10.5507 9.17568 10.5568 9.04366 10.6171C8.91164 10.6773 8.80841 10.7867 8.75605 10.922C8.56046 11.4676 8.31149 11.9925 8.01277 12.4892C7.97491 12.5516 7.94971 12.6208 7.93862 12.693C7.92752 12.7651 7.93074 12.8387 7.9481 12.9097C7.96546 12.9806 7.99661 13.0473 8.03978 13.1062C8.08295 13.1651 8.13729 13.2149 8.1997 13.2527C8.32575 13.3292 8.477 13.3524 8.6202 13.3174C8.6911 13.3 8.75789 13.2689 8.81675 13.2257C8.87562 13.1825 8.9254 13.1282 8.96326 13.0658ZM10.2771 9.54992C10.4829 8.41549 10.5759 7.26347 10.5548 6.11071C10.5543 5.32371 10.315 4.55539 9.86851 3.90729C9.42204 3.25919 8.78943 2.76181 8.05428 2.48088C7.31912 2.19995 6.51603 2.1487 5.75113 2.3339C4.98623 2.5191 4.29552 2.93202 3.77029 3.51812C3.71914 3.572 3.67932 3.6356 3.65318 3.70515C3.62704 3.7747 3.61512 3.84879 3.61813 3.92303C3.62113 3.99727 3.639 4.07015 3.67067 4.13736C3.70234 4.20457 3.74717 4.26475 3.80251 4.31433C3.85785 4.3639 3.92257 4.40188 3.99284 4.426C4.06312 4.45012 4.13752 4.4599 4.21164 4.45476C4.28576 4.44961 4.35809 4.42966 4.42436 4.39606C4.49064 4.36247 4.54949 4.31592 4.59746 4.25918C4.97259 3.84047 5.46594 3.54545 6.01231 3.41311C6.55868 3.28076 7.13234 3.31732 7.65749 3.51795C8.18264 3.71859 8.63455 4.07385 8.95349 4.53678C9.27244 4.99972 9.4434 5.54854 9.44378 6.11071C9.46427 7.19219 9.37831 8.27306 9.18714 9.33771C9.15908 9.48223 9.18955 9.63198 9.27184 9.75406C9.35412 9.87614 9.4815 9.96056 9.62599 9.98878C9.66129 9.99583 9.69721 9.99937 9.73321 9.99933C9.86188 9.999 9.98645 9.95401 10.0856 9.87204C10.1848 9.79008 10.2525 9.67622 10.2771 9.54992ZM3.88862 6.11071C3.88846 5.95567 3.90128 5.80088 3.92695 5.64797C3.94354 5.57436 3.94495 5.49814 3.93111 5.42396C3.91727 5.34978 3.88846 5.2792 3.84645 5.21652C3.80443 5.15384 3.75008 5.10039 3.68672 5.0594C3.62336 5.01842 3.55232 4.99078 3.47792 4.97816C3.40353 4.96554 3.32734 4.96821 3.25401 4.986C3.18068 5.0038 3.11175 5.03635 3.05141 5.08166C2.99108 5.12698 2.9406 5.18411 2.90308 5.24957C2.86555 5.31504 2.84175 5.38746 2.83314 5.46243C2.79646 5.67658 2.77788 5.89344 2.77758 6.11071C2.77758 8.69109 2.02986 9.99933 0.555517 9.99933C0.408185 9.99933 0.266887 10.0579 0.162707 10.162C0.0585275 10.2662 0 10.4075 0 10.5548C0 10.7022 0.0585275 10.8435 0.162707 10.9477C0.266887 11.0518 0.408185 11.1104 0.555517 11.1104C2.70481 11.1104 3.88862 9.33271 3.88862 6.11071ZM11.4992 13.0069C12.4134 10.826 12.8491 8.47437 12.7769 6.11071C12.7794 5.18796 12.5704 4.2769 12.1658 3.44757C12.1339 3.38191 12.0894 3.32318 12.0348 3.27474C11.9801 3.22629 11.9165 3.18908 11.8475 3.16522C11.7785 3.14136 11.7055 3.13133 11.6326 3.13569C11.5598 3.14005 11.4885 3.15872 11.4228 3.19064C11.3572 3.22256 11.2984 3.26709 11.25 3.3217C11.2015 3.37632 11.1643 3.43994 11.1405 3.50893C11.1166 3.57792 11.1066 3.65094 11.1109 3.72381C11.1153 3.79669 11.134 3.86799 11.1659 3.93364C11.4964 4.61169 11.6675 5.35638 11.6659 6.11071C11.7358 8.31543 11.3345 10.5097 10.4887 12.5469C10.4586 12.6135 10.4419 12.6853 10.4396 12.7582C10.4372 12.8312 10.4493 12.904 10.4751 12.9723C10.5009 13.0406 10.5399 13.1031 10.5899 13.1564C10.6399 13.2096 10.6999 13.2524 10.7665 13.2824C10.8384 13.3155 10.9167 13.3326 10.9959 13.3324C11.1021 13.332 11.206 13.3011 11.2952 13.2434C11.3844 13.1857 11.4552 13.1036 11.4992 13.0069ZM1.66655 7.77726V6.11071C1.66802 4.78517 2.19524 3.51435 3.13254 2.57705C4.06984 1.63975 5.34066 1.11253 6.6662 1.11106C7.74856 1.10746 8.80227 1.45869 9.66599 2.11099C9.78386 2.19939 9.93201 2.23735 10.0779 2.21651C10.2237 2.19568 10.3553 2.11775 10.4437 1.99989C10.5321 1.88202 10.5701 1.73387 10.5492 1.58802C10.5284 1.44217 10.4505 1.31056 10.3326 1.22217C9.27678 0.425233 7.98902 -0.00401905 6.6662 2.83616e-05C5.04613 0.0019396 3.49297 0.646356 2.34741 1.79192C1.20184 2.93748 0.557428 4.49065 0.555517 6.11071V7.77726C0.555517 7.9246 0.614044 8.06589 0.718224 8.17007C0.822403 8.27425 0.963701 8.33278 1.11103 8.33278C1.25837 8.33278 1.39966 8.27425 1.50384 8.17007C1.60802 8.06589 1.66655 7.9246 1.66655 7.77726Z" fill="#7B8190"/>
</g>
</svg>
