<svg preserveAspectRatio="xMidYMid meet"  overflow="visible" style="display: block;" viewBox="0 0 12.2249 13.3333" fill="none" xmlns="http://www.w3.org/2000/svg">
<path id="Vector" d="M10.44 1.82186C8.0805 -0.57828 4.22199 -0.611194 1.82186 1.74835C-0.57828 4.10789 -0.611194 7.96639 1.74835 10.3665C1.77767 10.3964 1.8073 10.4259 1.83725 10.4551L4.02175 12.4734C5.18959 13.6159 7.05485 13.6206 8.2284 12.4839L10.44 10.4402C12.8198 8.06024 12.8198 4.20176 10.44 1.82186ZM8.18463 7.40136C8.40472 7.61392 8.41081 7.96467 8.19822 8.18473C7.98564 8.40479 7.63491 8.41091 7.41485 8.19833C7.41024 8.19387 7.40571 8.18934 7.40126 8.18473L6.1309 6.91437L4.86051 8.18476C4.64042 8.39732 4.2897 8.39125 4.07714 8.17117C3.86976 7.95647 3.86976 7.61608 4.07714 7.40139L5.3475 6.13103L4.07714 4.86066C3.85705 4.6481 3.85096 4.29738 4.06352 4.07729C4.27608 3.85721 4.6268 3.85111 4.84689 4.06367C4.8515 4.06813 4.85606 4.07268 4.86051 4.07729L6.13087 5.34765L7.40123 4.07729C7.61379 3.85721 7.96454 3.85111 8.1846 4.0637C8.40466 4.27629 8.41078 4.62701 8.1982 4.84707C8.19374 4.85168 8.18921 4.85621 8.1846 4.86066L6.91424 6.13103L8.18463 7.40136Z" fill="#F46A6B"/>
</svg>
