<svg preserveAspectRatio="xMidYMid meet"  overflow="visible" style="display: block;" viewBox="0 0 12.6667 13.3333" fill="none" xmlns="http://www.w3.org/2000/svg">
<path id="Vector" fill-rule="evenodd" clip-rule="evenodd" d="M10.8116 1.79C9.61515 0.635556 8.02433 0 6.33333 0C4.64233 0 3.05152 0.636111 1.85509 1.79C0.658667 2.94389 0 4.47833 0 6.11111C0 7.74389 0.658667 9.27778 1.87121 10.4472L4.14142 12.4711C4.72985 13.0272 5.50885 13.3333 6.33333 13.3333C7.15782 13.3333 7.93624 13.0272 8.51315 12.4817L10.8116 10.4322C12.008 9.27778 12.6667 7.74333 12.6667 6.11111C12.6667 4.47889 12.008 2.94389 10.8116 1.79ZM7.2381 9.56522C7.2381 10.0452 6.83276 10.4348 6.33333 10.4348C5.8339 10.4348 5.42857 10.0452 5.42857 9.56522C5.42857 9.08522 5.8339 8.69565 6.33333 8.69565C6.83276 8.69565 7.2381 9.08522 7.2381 9.56522ZM5.73016 4.05797V7.24638C5.73016 7.56696 5.99978 7.82609 6.33333 7.82609C6.66689 7.82609 6.93651 7.56696 6.93651 7.24638V4.05797C6.93651 3.73739 6.66689 3.47826 6.33333 3.47826C5.99978 3.47826 5.73016 3.73739 5.73016 4.05797Z" fill="#F1B44C"/>
</svg>
