<svg preserveAspectRatio="xMidYMid meet"  overflow="visible" style="display: block;" viewBox="0 0 12 13.3333" fill="none" xmlns="http://www.w3.org/2000/svg">
<path id="Vector" d="M10.2425 1.79C9.10909 0.635555 7.602 0 6 0C4.398 0 2.89091 0.636111 1.75745 1.79C0.624 2.94389 0 4.47833 0 6.11111C0 7.74389 0.624 9.27778 1.77273 10.4472L3.92345 12.4711C4.48091 13.0272 5.21891 13.3333 6 13.3333C6.78109 13.3333 7.51855 13.0272 8.06509 12.4817L10.2425 10.4322C11.376 9.27778 12 7.74333 12 6.11111C12 4.47889 11.376 2.94389 10.2425 1.79ZM9.10855 4.84L5.94873 8.01055C5.74383 8.2175 5.46681 8.33339 5.17826 8.33287C4.8897 8.33235 4.61308 8.21546 4.40891 8.00778L2.89145 6.51C2.78759 6.40738 2.728 6.26693 2.7258 6.11956C2.7236 5.97218 2.77897 5.82996 2.87973 5.72417C2.98049 5.61837 3.11838 5.55768 3.26307 5.55544C3.40776 5.5532 3.5474 5.6096 3.65127 5.71222L5.17473 7.21611L8.34327 4.04889C8.44635 3.94545 8.58554 3.88796 8.73023 3.88905C8.87492 3.89015 9.01327 3.94974 9.11482 4.05472C9.21637 4.1597 9.27282 4.30147 9.27175 4.44885C9.27067 4.59622 9.21216 4.73712 9.10909 4.84056L9.10855 4.84Z" fill="#0ABB87"/>
</svg>
