<svg preserveAspectRatio="xMidYMid meet"  overflow="visible" style="display: block;" viewBox="0 0 12.7067 12.708" fill="none" xmlns="http://www.w3.org/2000/svg">
<path id="Vector" d="M11.3487 9.98467C11.0364 9.68558 10.7325 9.37791 10.4373 9.062C10.1893 8.81 10.04 8.62667 10.04 8.62667L8.17333 7.73533C8.92066 6.88776 9.33311 5.79666 9.33333 4.66667C9.33333 2.094 7.24 0 4.66667 0C2.09333 0 0 2.094 0 4.66667C0 7.23933 2.09333 9.33333 4.66667 9.33333C5.842 9.33333 6.91333 8.89333 7.73533 8.174L8.62667 10.0407C8.62667 10.0407 8.81 10.19 9.062 10.438C9.32 10.68 9.65933 11.0073 9.98467 11.3493L10.89 12.2773L11.2927 12.708L12.7067 11.294L12.276 10.8913C12.0233 10.6433 11.686 10.314 11.3487 9.98467ZM4.66667 8C2.82867 8 1.33333 6.50467 1.33333 4.66667C1.33333 2.82867 2.82867 1.33333 4.66667 1.33333C6.50467 1.33333 8 2.82867 8 4.66667C8 6.50467 6.50467 8 4.66667 8Z" fill="#0092C6"/>
</svg>
