<svg preserveAspectRatio="xMidYMid meet"  overflow="visible" style="display: block;" viewBox="0 0 11.2 12.8" fill="none" xmlns="http://www.w3.org/2000/svg">
<path id="Primary" d="M3.38 0.4425L3.2 0.8H0.8C0.3575 0.8 0 1.1575 0 1.6C0 2.0425 0.3575 2.4 0.8 2.4H10.4C10.8425 2.4 11.2 2.0425 11.2 1.6C11.2 1.1575 10.8425 0.8 10.4 0.8H8L7.82 0.4425C7.685 0.17 7.4075 0 7.105 0H4.095C3.7925 0 3.515 0.17 3.38 0.4425ZM10.4 3.2H0.8L1.33 11.675C1.37 12.3075 1.895 12.8 2.5275 12.8H8.6725C9.305 12.8 9.83 12.3075 9.87 11.675L10.4 3.2Z" fill="#F46A6A"/>
</svg>
