<svg preserveAspectRatio="xMidYMid meet"  overflow="visible" style="display: block;" viewBox="0 0 15.9975 12.8" fill="none" xmlns="http://www.w3.org/2000/svg">
<path id="Primary" d="M5.6 6.4C6.44869 6.4 7.26263 6.06286 7.86274 5.46274C8.46286 4.86263 8.8 4.04869 8.8 3.2C8.8 2.35131 8.46286 1.53737 7.86274 0.937258C7.26263 0.337142 6.44869 0 5.6 0C4.75131 0 3.93737 0.337142 3.33726 0.937258C2.73714 1.53737 2.4 2.35131 2.4 3.2C2.4 4.04869 2.73714 4.86263 3.33726 5.46274C3.93737 6.06286 4.75131 6.4 5.6 6.4ZM4.4575 7.6C1.995 7.6 0 9.595 0 12.0575C0 12.4675 0.3325 12.8 0.7425 12.8H8.07C7.9925 12.58 7.9775 12.34 8.035 12.105L8.41 10.6025C8.48 10.32 8.625 10.065 8.83 9.86L9.8375 8.8525C9.035 8.0775 7.945 7.6 6.74 7.6H4.4575ZM15.345 5.8925C14.955 5.5025 14.3225 5.5025 13.93 5.8925L13.195 6.6275L14.97 8.4025L15.705 7.6675C16.095 7.2775 16.095 6.645 15.705 6.2525L15.345 5.8925ZM9.3975 10.425C9.295 10.5275 9.2225 10.655 9.1875 10.7975L8.8125 12.3C8.7775 12.4375 8.8175 12.58 8.9175 12.68C9.0175 12.78 9.16 12.82 9.2975 12.785L10.8 12.41C10.94 12.375 11.07 12.3025 11.1725 12.2L14.4025 8.9675L12.6275 7.1925L9.3975 10.425Z" fill="#34C38F"/>
</svg>
