<svg preserveAspectRatio="xMidYMid meet" overflow="visible" style="display: block;" viewBox="0 0 50.963 48" fill="none" xmlns="http://www.w3.org/2000/svg">
<path id="Union" fill-rule="evenodd" clip-rule="evenodd" d="M0 27.9803V22.822C0.277128 21.0072 0.683373 19.2305 1.21873 17.492C1.5368 16.4591 1.68954 15.5358 1.67694 14.7221C1.64545 12.4878 1.64073 10.2424 1.66277 7.98579C1.66268 7.89852 1.64252 7.81282 1.60392 7.73575C1.56532 7.65867 1.5094 7.59242 1.44075 7.54242C-1.12898 5.63069 0.864452 1.8406 3.69399 3.11827C5.3048 3.84291 5.61657 6.08836 4.27502 7.21347C4.10181 7.35967 4.01521 7.5456 4.01521 7.77126L4.01049 11.1275C4.01049 11.439 4.10024 11.4676 4.27974 11.2133C5.25284 9.82124 6.38812 8.45776 7.68559 7.12289C7.83045 6.97351 7.99263 6.95126 8.17213 7.05615L15.0358 11.0846C15.2121 11.1863 15.2358 11.3166 15.1066 11.4755C14.0076 12.8263 13.1872 14.3455 12.6456 16.0332C12.6235 16.0979 12.6226 16.168 12.6431 16.2332C12.6635 16.2984 12.7041 16.3553 12.7589 16.3955C17.1142 19.7088 17.8937 26.0686 15.1397 30.6739C12.4613 35.1505 6.78334 35.8227 3.45308 31.656C2.84214 30.8932 2.75554 30.9488 3.19327 31.8228C6.21177 37.8441 13.3872 37.8917 16.297 31.7561C16.3789 31.5845 16.4891 31.5622 16.6277 31.6893C19.7044 34.4926 23.3339 36.2438 27.516 36.943C31.4399 37.5977 35.3244 37.4325 39.1696 36.4472C44.0854 35.1854 46.8945 32.0644 47.5968 27.084C48.0125 24.1537 47.7621 21.0247 46.8457 17.697C44.942 10.7843 39.7506 6.48406 32.7405 5.60686C28.7316 5.10787 24.8282 5.60368 21.0303 7.09429C20.8728 7.15785 20.7216 7.14673 20.5768 7.06092L13.7604 3.05629C13.7385 3.0442 13.7206 3.02625 13.7084 3.00436C13.6963 2.98247 13.6904 2.95746 13.6913 2.932C13.6923 2.90655 13.7001 2.8816 13.7139 2.85983C13.7278 2.83805 13.7471 2.82028 13.7698 2.80839C28.7536 -4.75749 46.8079 3.61408 50.3791 20.1236C51.116 23.5339 51.1554 26.8933 50.4972 30.2019C48.688 39.2647 41.8857 44.9237 33.1893 47.1596C32.7673 47.2676 32.7059 47.1612 33.005 46.8402C33.6443 46.1632 34.1655 45.313 34.5686 44.2896C34.6977 43.9622 34.926 43.735 35.2536 43.6079L37.332 42.7926C37.3684 42.7789 37.4009 42.7563 37.4266 42.7268C37.4523 42.6974 37.4704 42.662 37.4793 42.6238C37.4881 42.5856 37.4875 42.5458 37.4775 42.5079C37.4675 42.4699 37.4483 42.4351 37.4218 42.4065L33.6097 38.2588C33.593 38.2408 33.5727 38.2264 33.5501 38.2168C33.5275 38.2071 33.5032 38.2024 33.4787 38.2028C33.4542 38.2033 33.4301 38.2089 33.4079 38.2194C33.3857 38.2299 33.3659 38.2449 33.3499 38.2636C31.5769 40.2468 29.6779 41.9329 27.653 43.3218C27.6351 43.3351 27.6214 43.3533 27.6137 43.3743C27.6059 43.3954 27.6045 43.4182 27.6095 43.4401C27.6146 43.4619 27.6258 43.4818 27.642 43.4972C27.6581 43.5126 27.6784 43.5229 27.7002 43.5268L30.133 43.9082C30.1732 43.9143 30.2111 43.9314 30.2423 43.9577C30.2736 43.984 30.2971 44.0185 30.3103 44.0574C30.3235 44.0962 30.3258 44.138 30.317 44.1781C30.3082 44.2183 30.2887 44.2552 30.2605 44.2848C28.6072 46.0917 25.2202 48.2322 22.6789 47.9796C15.5932 47.274 9.94828 44.8172 5.74411 40.6092C2.51305 37.3769 0.598345 33.1672 0 27.9803ZM8.25716 31.5749C9.80064 31.5749 11.2809 30.7768 12.3723 29.3561C13.4637 27.9355 14.0769 26.0086 14.0769 23.9995C14.0769 21.9904 13.4637 20.0636 12.3723 18.6429C11.2809 17.2222 9.80064 16.4241 8.25716 16.4241C6.71368 16.4241 5.23342 17.2222 4.14202 18.6429C3.05061 20.0636 2.43747 21.9904 2.43747 23.9995C2.43747 26.0086 3.05061 27.9355 4.14202 29.3561C5.23342 30.7768 6.71368 31.5749 8.25716 31.5749ZM11.5685 4.16239L18.4558 8.20992C18.478 8.22305 18.4967 8.24155 18.5102 8.26376C18.5236 8.28596 18.5314 8.31119 18.5328 8.33717C18.5342 8.36316 18.5292 8.38908 18.5182 8.41263C18.5073 8.43619 18.4907 8.45663 18.47 8.47212L16.8544 9.64967C16.8301 9.66774 16.801 9.67826 16.7708 9.67995C16.7406 9.68165 16.7106 9.67444 16.6844 9.65921L9.77821 5.61645C9.75523 5.60314 9.736 5.58414 9.72231 5.56125C9.70863 5.53836 9.70095 5.51233 9.70001 5.48561C9.69906 5.45889 9.70488 5.43237 9.71691 5.40855C9.72894 5.38473 9.74678 5.3644 9.76876 5.34947L11.4032 4.16716C11.4275 4.15079 11.4559 4.14166 11.4852 4.14082C11.5144 4.13997 11.5433 4.14745 11.5685 4.16239ZM25.1636 7.55661C20.2004 8.06195 16.7442 10.9399 14.7949 16.1904C14.7766 16.2377 14.7777 16.2905 14.7979 16.3377C14.8182 16.3849 14.8561 16.4226 14.9035 16.4431L15.0263 16.4955C15.0789 16.5171 15.1375 16.5189 15.1913 16.5005C15.245 16.4821 15.2905 16.4448 15.3192 16.3954C16.6419 14.1134 18.3471 12.4257 20.4351 11.3324C21.685 10.6779 23.1044 10.388 24.5186 10.0991C24.9483 10.0113 25.3775 9.92366 25.8013 9.82589C26.3839 9.68923 26.6925 9.31896 26.7271 8.71509C26.7492 8.31463 26.4217 7.96025 25.7446 7.65195C25.5623 7.56777 25.3615 7.53482 25.1636 7.55661ZM22.8541 23.3667C22.8132 25.7307 24.0805 27.6701 25.6847 27.6983C27.2889 27.7266 28.6225 25.8331 28.6634 23.469C28.7043 21.105 27.437 19.1656 25.8328 19.1374C24.2286 19.1091 22.895 21.0026 22.8541 23.3667ZM41.7826 27.4415C40.5982 27.4289 39.6568 25.6174 39.6799 23.3953C39.7029 21.1732 40.6817 19.382 41.8661 19.3945C43.0505 19.407 43.9919 21.2186 43.9688 23.4407C43.9458 25.6628 42.967 27.454 41.7826 27.4415Z" fill="#c3c9d9"/>
</svg>
